<?xml version="1.0" encoding="UTF-8"?>
<svg width="36px" height="37px" viewBox="0 0 36 37" version="1.1" xmlns="http://www.w3.org/2000/svg" xmlns:xlink="http://www.w3.org/1999/xlink">
    <!-- Generator: Sketch 41.2 (35397) - http://www.bohemiancoding.com/sketch -->
    <title>Shape</title>
    <desc>Created with Sketch.</desc>
    <defs></defs>
    <g id="Symbols" stroke="none" stroke-width="1" fill="none" fill-rule="evenodd">
        <g id="Footer" transform="translate(-1221.000000, -217.000000)" fill="#000000">
            <g id="Group-2">
                <g transform="translate(1154.000000, 213.000000)">
                    <g id="1479894704_38-instagram" transform="translate(67.000000, 4.000000)">
                        <g id="Layer_1">
                            <path d="M28.9937903,0.817735294 L7.32084967,0.817735294 C3.55619703,0.817735294 0.493452932,3.89872674 0.493452932,7.68668993 L0.493452932,14.9428299 L0.493452932,29.4945454 C0.493452932,33.2825086 3.55619703,36.3635 7.32084967,36.3635 L28.9945029,36.3635 C32.7591556,36.3635 35.8211871,33.2825086 35.8211871,29.4945454 L35.8211871,14.9421129 L35.8211871,7.68597292 C35.8204745,3.89800973 32.758443,0.817735294 28.9937903,0.817735294 Z M30.9520083,4.91401273 L31.7330152,4.91114469 L31.7330152,5.69340247 L31.7330152,10.9361787 L25.765011,10.955538 L25.7443457,4.93122096 L30.9520083,4.91401273 Z M13.11498,14.9421129 C14.2465849,13.3668422 16.0822361,12.3336309 18.15732,12.3336309 C20.2324039,12.3336309 22.0680551,13.3668422 23.1982348,14.9421129 C23.934348,15.970305 24.3754459,17.2279404 24.3754459,18.5902591 C24.3754459,22.0397937 21.5834888,24.8461703 18.1566074,24.8461703 C14.7275882,24.8461703 11.9384815,22.0397937 11.9384815,18.5902591 C11.9391941,17.2279404 12.3788668,15.970305 13.11498,14.9421129 Z M32.3786285,29.4938284 C32.3786285,31.3731112 30.8600832,32.8996253 28.9937903,32.8996253 L7.32084967,32.8996253 C5.4538442,32.8996253 3.9352989,31.3731112 3.9352989,29.4938284 L3.9352989,14.9421129 L9.20852047,14.9421129 C8.75317067,16.0692524 8.49734816,17.3003584 8.49734816,18.5902591 C8.49734816,23.948474 12.829941,28.3107621 18.15732,28.3107621 C23.4839864,28.3107621 27.8165792,23.948474 27.8165792,18.5902591 C27.8165792,17.3003584 27.5593315,16.0692524 27.1039817,14.9421129 L32.3786285,14.9421129 L32.3786285,29.4938284 Z" id="Shape"></path>
                        </g>
                    </g>
                </g>
            </g>
        </g>
    </g>
</svg>