<svg xmlns="http://www.w3.org/2000/svg" viewBox="0 0 1201.6 182.4"><path d="M28.6 2.1l-28.2 176h25.3l4.8-32h34l4.8 32h27.9L69.1 2.1H28.6zM34.1 122.1l13.1-89h0.5l13.1 89H34.1z"/><path d="M971.4 129.6c0-18.3-4.4-31.4-18-37.2v-0.6c12.2-5.8 18-17.2 18-35.2v-14c0-27.2-12.4-40.5-41.1-40.5h-41.9v176h28v-72h9.7c12.7 0 18.3 6.1 18.3 22.5v27.8c0 14.4 1 17.2 2.5 21.7h27.4c-2.7-6.5-3-12.8-3-21.4V129.6zM943.4 62.5c0 14.1-6.2 18.6-16.3 18.6h-10.7v-54h13.1c9.7 0 13.9 5.5 13.9 18.1V62.5z"/><path d="M293.4 80.9c-18.1-15.8-23.6-25.3-23.6-38.1 0-12.5 5-17.3 13.8-17.3s13.8 4.8 13.8 17.3v7.3h26v-5.5c0-28.1-13.8-44.1-40.7-44.1S242 16.4 242 44.5c0 20.1 7.3 34.6 30.4 54.9 18.1 15.8 23.6 25.3 23.6 38.1 0 12.5-5.5 17.1-14.3 17.1s-14.3-4.5-14.3-17.1v-12.5h-26v10.8c0 28.1 14.1 44.1 41.2 44.1s41.2-16.1 41.2-44.1C323.8 115.8 316.5 101.2 293.4 80.9z"/><rect x="705.4" y="2.1" width="28" height="176"/><polygon points="1200.4 27.1 1200.4 2.1 1125.4 2.1 1125.4 178.1 1200.4 178.1 1200.4 153.1 1152.4 153.1 1152.4 101.1 1190.4 101.1 1190.4 76.1 1152.4 76.1 1152.4 27.1 "/><path d="M515.4 2.1h-41v176h28v-66h13c27.5 0 41-15.4 41-43.5V45.6C556.4 17.4 542.9 2.1 515.4 2.1zM529.4 70.4c0 12.7-4.8 16.7-13.8 16.7h-13.2v-60h13.2c8.9 0 13.8 4.1 13.8 16.7V70.4z"/></svg>