<?xml version="1.0" encoding="UTF-8"?>
<svg width="39px" height="33px" viewBox="0 0 39 33" version="1.1" xmlns="http://www.w3.org/2000/svg" xmlns:xlink="http://www.w3.org/1999/xlink">
    <!-- Generator: Sketch 41.2 (35397) - http://www.bohemiancoding.com/sketch -->
    <title>XMLID_232_</title>
    <desc>Created with Sketch.</desc>
    <defs></defs>
    <g id="Symbols" stroke="none" stroke-width="1" fill="none" fill-rule="evenodd">
        <g id="Footer" transform="translate(-1293.000000, -218.000000)" fill="#000000">
            <g id="Group-2">
                <g transform="translate(1154.000000, 213.000000)">
                    <g id="1479894623_Vimeo_Solid" transform="translate(139.000000, 5.000000)">
                        <g id="Layer_1">
                            <g id="XMLID_231_">
                                <path d="M38.1700874,7.97712762 C38.0074149,11.6197683 35.4672203,16.6017993 30.5495038,22.9232205 C25.4691147,29.532548 21.1645486,32.8372118 17.6483187,32.8372118 C15.4710091,32.8372118 13.6190447,30.8218676 12.1174518,26.8036969 C11.1163899,23.1109855 10.1028148,19.4307918 9.10175289,15.7380804 C7.98807155,11.7199097 6.78679728,9.70456549 5.4979301,9.70456549 C5.22263809,9.70456549 4.23408947,10.2928958 2.56982409,11.4695564 L0.817965787,9.20385886 C2.657417,7.58907998 4.48435494,5.96178343 6.27375307,4.33448689 C8.73886796,2.20648371 10.5783192,1.09241146 11.8171333,0.979752468 C14.7202127,0.704363822 16.5096109,2.69467267 17.1853276,6.95067903 C17.9110975,11.5446624 18.4116284,14.3986901 18.6994337,15.5127624 C19.5378231,19.3181328 20.4638053,21.2333356 21.4648672,21.2333356 C22.2406901,21.2333356 23.4169379,19.9940867 24.9936103,17.5281066 C26.5577695,15.0621264 27.3961589,13.1719589 27.5087783,11.8826393 C27.7340172,9.75463615 26.8956279,8.6781169 24.9936103,8.6781169 C24.0926546,8.6781169 23.1791857,8.87839955 22.2281769,9.29148252 C24.0676281,3.2704853 27.5713447,0.353869181 32.75184,0.516598836 C36.5809017,0.604222496 38.3953263,3.09523798 38.1700874,7.97712762 Z" id="XMLID_232_"></path>
                            </g>
                        </g>
                    </g>
                </g>
            </g>
        </g>
    </g>
</svg>